<?xml version="1.0" standalone="no"?>
<!DOCTYPE svg PUBLIC "-//W3C//DTD SVG 20010904//EN" "http://www.w3.org/TR/2001/REC-SVG-20010904/DTD/svg10.dtd">
<svg version="1.0" xmlns="http://www.w3.org/2000/svg" width="201.000000pt" height="201.000000pt"
    viewBox="0 15 201.000000 201.000000" preserveAspectRatio="xMidYMid meet">

    <g transform="translate(0.000000,201.000000) scale(0.100000,-0.100000)" fill="#000000" stroke="none">
        <path d="M623 1831 c-60 -44 -87 -107 -87 -207 0 -72 4 -90 33 -148 109 -222
353 -177 369 68 11 175 -88 315 -224 316 -41 0 -59 -6 -91 -29z" />
        <path d="M1214 1835 c-144 -86 -177 -335 -61 -451 48 -47 95 -61 157 -44 154
41 234 298 137 441 -54 81 -151 103 -233 54z" />
        <path d="M291 1453 c-13 -3 -43 -24 -66 -48 -69 -68 -81 -168 -33 -271 95
-206 366 -184 385 32 16 179 -122 318 -286 287z" />
        <path d="M1615 1449 c-46 -13 -113 -75 -142 -133 -37 -71 -38 -172 -3 -234 73
-129 254 -121 341 16 58 91 65 179 21 263 -43 83 -124 116 -217 88z" />
        <path d="M868 1134 c-347 -84 -534 -480 -380 -808 73 -154 168 -197 315 -141
132 49 273 50 416 0 90 -30 141 -32 197 -4 50 24 85 67 124 152 147 328 -43
720 -391 802 -78 18 -205 18 -281 -1z" />
    </g>
</svg>